<svg xmlns="http://www.w3.org/2000/svg" xmlns:xlink="http://www.w3.org/1999/xlink" version="1.1" x="0px" y="0px" viewBox="0 0 100 125" enable-background="new 0 0 100 100" xml:space="preserve"><g><path d="M77.131,41.181c-2.049,0-4.011,0.364-5.846,1.002l-3.322-9.719l-0.859-4.17l8.428-2.284c0.795-0.216,1.264-1.035,1.05-1.83   c-0.216-0.795-1.032-1.265-1.831-1.05l-9.781,2.65c-0.034,0.009-0.063,0.025-0.096,0.037c-0.05,0.017-0.099,0.034-0.146,0.056   c-0.043,0.02-0.083,0.044-0.124,0.068c-0.043,0.026-0.086,0.051-0.127,0.08c-0.038,0.028-0.073,0.06-0.108,0.091   c-0.037,0.033-0.073,0.065-0.106,0.101c-0.032,0.035-0.059,0.072-0.088,0.109c-0.029,0.039-0.059,0.077-0.084,0.119   c-0.024,0.04-0.044,0.081-0.065,0.123c-0.022,0.044-0.043,0.088-0.061,0.134c-0.017,0.044-0.028,0.089-0.041,0.135   c-0.013,0.047-0.025,0.093-0.033,0.141c-0.008,0.049-0.011,0.099-0.015,0.15c-0.003,0.046-0.007,0.092-0.005,0.139   c0.002,0.055,0.009,0.109,0.017,0.164c0.004,0.032,0.003,0.063,0.01,0.095l0.913,4.432H37.32l-1.783-5.892h4.36   c0.824,0,1.492-0.668,1.492-1.492c0-0.824-0.668-1.492-1.492-1.492h-12.74c-0.824,0-1.492,0.668-1.492,1.492   c0,0.824,0.668,1.492,1.492,1.492h5.263l2.853,9.428l-4.726,7.448c-2.33-1.115-4.926-1.758-7.677-1.758   C13.017,41.181,5,49.197,5,59.051c0,9.853,8.017,17.87,17.87,17.87c8.03,0,14.837-5.326,17.083-12.629   c0.777,2.015,2.729,3.452,5.015,3.452c2.965,0,5.377-2.412,5.377-5.377c0-0.953-0.252-1.847-0.688-2.623l18.175-18.437l0.711,2.08   c-5.528,3.042-9.284,8.922-9.284,15.665c0,9.853,8.017,17.87,17.87,17.87S95,68.905,95,59.051   C95,49.197,86.984,41.181,77.131,41.181z M36.414,39.261l5.628,18.6c-0.497,0.324-0.936,0.728-1.302,1.194c0-0.001,0-0.002,0-0.004   c0-6.037-3.017-11.374-7.613-14.61L36.414,39.261z M37.719,59.811l-13.134-1.907l6.941-10.94c3.765,2.704,6.231,7.109,6.231,12.088   C37.757,59.308,37.732,59.558,37.719,59.811z M22.87,73.938c-8.208,0-14.887-6.678-14.887-14.887   c0-8.209,6.679-14.887,14.887-14.887c2.163,0,4.214,0.474,6.07,1.307l-8.109,12.781c-0.002,0.003-0.002,0.006-0.004,0.008   c-0.04,0.064-0.071,0.133-0.102,0.203c-0.009,0.022-0.023,0.043-0.031,0.065c-0.018,0.047-0.027,0.099-0.04,0.148   c-0.012,0.048-0.028,0.094-0.036,0.143c-0.001,0.005-0.003,0.01-0.004,0.015c-0.006,0.038-0.002,0.075-0.005,0.113   c-0.004,0.056-0.01,0.111-0.007,0.166c0.002,0.047,0.011,0.092,0.017,0.137c0.007,0.05,0.012,0.101,0.024,0.15   c0.01,0.042,0.026,0.081,0.04,0.122c0.017,0.052,0.034,0.104,0.057,0.154c0.015,0.032,0.034,0.06,0.051,0.091   c0.03,0.055,0.06,0.109,0.097,0.16c0.017,0.023,0.038,0.044,0.056,0.066c0.043,0.052,0.086,0.104,0.137,0.151   c0.021,0.02,0.046,0.035,0.068,0.053c0.047,0.038,0.091,0.079,0.143,0.113c0.006,0.004,0.013,0.005,0.019,0.008   c0.099,0.061,0.208,0.108,0.322,0.145c0.045,0.015,0.091,0.024,0.137,0.034c0.036,0.008,0.07,0.021,0.107,0.027l15.395,2.236   C35.616,69.177,29.796,73.938,22.87,73.938z M44.968,64.76c-1.32,0-2.394-1.074-2.394-2.393s1.074-2.394,2.394-2.394   c0.655,0,1.249,0.266,1.682,0.694c0,0,0,0.001,0.001,0.001c0.001,0.001,0.003,0.001,0.004,0.002   c0.436,0.434,0.707,1.034,0.707,1.696C47.362,63.687,46.288,64.76,44.968,64.76z M47.537,57.644   c-0.764-0.417-1.639-0.655-2.569-0.655c-0.024,0-0.048,0.003-0.072,0.004l-6.674-22.055h27.433l1.099,3.213L47.537,57.644z    M77.131,73.938c-8.208,0-14.887-6.678-14.887-14.887c0-5.431,2.932-10.177,7.287-12.778l2.206,6.451   c0.032,0.097,0.074,0.192,0.127,0.283l3.979,6.797c0.278,0.474,0.777,0.739,1.289,0.739c0.256,0,0.516-0.066,0.753-0.205   c0.711-0.416,0.95-1.33,0.534-2.041l-3.905-6.671l-2.264-6.623c1.532-0.534,3.17-0.839,4.882-0.839   c8.208,0,14.886,6.678,14.886,14.887C92.017,67.26,85.339,73.938,77.131,73.938z"/></g><text x="0" y="115" fill="#000000" font-size="5px" font-weight="bold" font-family="'Helvetica Neue', Helvetica, Arial-Unicode, Arial, Sans-serif"></text><text x="0" y="120" fill="#000000" font-size="5px" font-weight="bold" font-family="'Helvetica Neue', Helvetica, Arial-Unicode, Arial, Sans-serif"></text></svg>
