<svg xmlns="http://www.w3.org/2000/svg" xmlns:xlink="http://www.w3.org/1999/xlink" version="1.1" x="0px" y="0px" viewBox="0 0 100 125" style="enable-background:new 0 0 100 100;" xml:space="preserve"><g><path d="M98.28828,73.98717h-6.73093c-0.94527,0-1.71172-0.76644-1.71172-1.71172c0-0.94527,0.76644-1.71172,1.71172-1.71172   h5.01921V28.80838c0-4.37167-3.55708-7.92874-7.92973-7.92874H5.13418c-0.94331,0-1.71074,0.76743-1.71074,1.71074v47.97335   h5.01921c0.94528,0,1.71172,0.76644,1.71172,1.71172c0,0.94528-0.76644,1.71172-1.71172,1.71172H1.71172   C0.76644,73.98717,0,73.22073,0,72.27544V22.59038c0-2.83092,2.30326-5.13418,5.13418-5.13418h83.51266   C94.90611,17.4562,100,22.54911,100,28.80838v43.46706C100,73.22073,99.23356,73.98717,98.28828,73.98717z M74.44212,73.98717   h-48.8862c-0.94528,0-1.71172-0.76644-1.71172-1.71172c0-0.94527,0.76644-1.71172,1.71172-1.71172h48.8862   c0.94528,0,1.71172,0.76644,1.71172,1.71172C76.15384,73.22073,75.3874,73.98717,74.44212,73.98717z"/><path d="M98.28828,30.5201H1.71172C0.76644,30.5201,0,29.75366,0,28.80838s0.76644-1.71172,1.71172-1.71172h96.57655   c0.94528,0,1.71172,0.76644,1.71172,1.71172S99.23356,30.5201,98.28828,30.5201z"/><path d="M16.99928,82.5438c-5.66184,0-10.26835-4.60651-10.26835-10.26836S11.33744,62.0071,16.99928,62.0071   s10.26835,4.60651,10.26835,10.26835S22.66113,82.5438,16.99928,82.5438z M16.99928,65.43053   c-3.77423,0-6.84491,3.06969-6.84491,6.84491c0,3.77522,3.07068,6.84492,6.84491,6.84492s6.84491-3.06969,6.84491-6.84492   C23.8442,68.50023,20.77352,65.43053,16.99928,65.43053z"/><path d="M83.00072,82.5438c-5.66381,0-10.27032-4.60651-10.27032-10.26836S77.33691,62.0071,83.00072,62.0071   c5.66184,0,10.26836,4.60651,10.26836,10.26835S88.66256,82.5438,83.00072,82.5438z M83.00072,65.43053   c-3.77522,0-6.84688,3.06969-6.84688,6.84491c0,3.77522,3.07166,6.84492,6.84688,6.84492s6.84492-3.06969,6.84492-6.84492   C89.84563,68.50023,86.77593,65.43053,83.00072,65.43053z"/><path d="M73.75822,49.17411H1.71172C0.76644,49.17411,0,48.40767,0,47.46239s0.76644-1.71172,1.71172-1.71172h72.04649   c0.94528,0,1.71172,0.76644,1.71172,1.71172S74.7035,49.17411,73.75822,49.17411z"/><path d="M98.28828,62.63597h-4.62026c-0.94528,0-1.71172-0.76644-1.71172-1.71172s0.76644-1.71172,1.71172-1.71172h4.62026   c0.94528,0,1.71172,0.76644,1.71172,1.71172S99.23356,62.63597,98.28828,62.63597z"/><path d="M98.28828,54.64925H83.22868c-0.30068,0-0.59547-0.08057-0.85684-0.22993l-9.47047-5.47515   c-0.81754-0.47362-1.09856-1.52011-0.62495-2.33863c0.47166-0.81656,1.52306-1.09562,2.33863-0.62495l9.07349,5.24521h14.59972   c0.94528,0,1.71172,0.76644,1.71172,1.71172S99.23356,54.64925,98.28828,54.64925z"/><path d="M73.75822,49.17411c-0.94527,0-1.71172-0.76644-1.71172-1.71172V28.80838c0-0.94528,0.76644-1.71172,1.71172-1.71172   c0.94528,0,1.71172,0.76644,1.71172,1.71172v18.65401C75.46994,48.40767,74.7035,49.17411,73.75822,49.17411z"/><path d="M24.81404,49.17411c-0.94528,0-1.71172-0.76644-1.71172-1.71172V28.80838c0-0.94528,0.76644-1.71172,1.71172-1.71172   s1.71172,0.76644,1.71172,1.71172v18.65401C26.52576,48.40767,25.75932,49.17411,24.81404,49.17411z"/><path d="M50.5989,49.17411c-0.94528,0-1.71172-0.76644-1.71172-1.71172V28.80838c0-0.94528,0.76644-1.71172,1.71172-1.71172   s1.71074,0.76644,1.71074,1.71172v18.65401C52.30964,48.40767,51.54418,49.17411,50.5989,49.17411z"/><path d="M67.31225,66.1164H32.68677c-0.94528,0-1.71172-0.76644-1.71172-1.71172c0-0.94527,0.76644-1.71172,1.71172-1.71172   h34.62548c0.94527,0,1.71172,0.76644,1.71172,1.71172C69.02396,65.34996,68.25752,66.1164,67.31225,66.1164z"/></g><text x="0" y="115" fill="#000000" font-size="5px" font-weight="bold" font-family="'Helvetica Neue', Helvetica, Arial-Unicode, Arial, Sans-serif"></text><text x="0" y="120" fill="#000000" font-size="5px" font-weight="bold" font-family="'Helvetica Neue', Helvetica, Arial-Unicode, Arial, Sans-serif"></text></svg>
