<svg xmlns="http://www.w3.org/2000/svg" xmlns:xlink="http://www.w3.org/1999/xlink" version="1.1" x="0px" y="0px" viewBox="0 0 500 625" style="enable-background:new 0 0 500 500;" xml:space="preserve"><path d="M492.5,305.3c-1.5,6.8-2.8,13.5-7.5,19.2c-6.6,8-15.1,11.7-25.1,12.1c-8.8,0.3-17.6,0.1-26.6,0.1  c-2.7,10.7-7.6,20-15.2,27.6c-28.9,28.9-79.5,15.7-90.4-23.6c-0.9-3.2-2.2-4.1-5.3-4.1c-50.7,0.1-101.3,0.1-152,0  c-2.9,0-4.4,0.4-5.4,3.8c-6.4,22.8-27.5,38.8-50.4,39.5c-25.6,0.7-47.3-16.1-53.9-38.7c-1.1-3.8-2.7-4.7-6.4-4.7  c-8.1,0-16.4,0.3-24.4-0.9c-13.2-2.1-20.6-10.3-23-23.8c-0.1-0.6-0.5-1.2-0.8-1.7c0-18.3,0-36.6,0-54.9c2-6.3,2.9-13.2,6.1-18.7  c7.5-13,20.2-19.8,33.9-24c13.6-4.2,27.7-6.8,41.6-10.4c3.1-0.8,6.5-2.3,8.8-4.4c21-19.1,41.9-38.3,62.7-57.7  c11-10.2,24.9-13.1,38.8-16c29.6-6.1,59.7-8.8,89.9-7.9c31.2,0.9,62.2,3.9,91.5,15.9c19.7,8,36.7,20,49.9,36.8  c7.7,9.7,14.5,20.1,21.9,30c1.1,1.5,3,2.9,4.8,3.6c11.9,4.6,23.1,10.5,30,21.6c3.1,5,4.5,11,6.6,16.6  C492.5,262.1,492.5,283.7,492.5,305.3z M57.8,328c0.1-16,4.9-29.5,15.3-40.4c10.5-11.1,23.8-16.6,38.9-16.8  c12.2-0.2,23.5,3.6,33.3,11.1c14.8,11.4,21.5,26.9,21.9,45.4c52.8,0,105.2,0,157.5,0c1-39.5,31.1-56.3,54.1-56.6  c12.2-0.2,23.6,3.4,33.4,10.9c15,11.4,21.8,27.1,22.3,46.1c8.1,0,15.7,0,23.4,0c15-0.1,24.7-9.4,24.8-24.3c0.2-20.1,0-40.2,0.1-60.3  c0-6.4-2-12.1-6.5-16.4c-4.2-4.1-8.8-7.9-13.7-10.9c-5.6-3.4-12.7-4.7-17.4-8.9c-4.8-4.3-7.3-11.1-10.9-16.7  c-0.1-0.1-0.2-0.3-0.3-0.4c-18.8-27.3-43.2-47.3-75.9-55c-17.2-4.1-34.9-6.9-52.5-8.3c-35.8-2.8-71.4-0.5-106.6,6.9  c-9.3,2-18.9,4.5-27.2,9c-8.4,4.6-15.7,11.6-22.9,18.2c-16.5,15.3-32.6,31.1-49,46.6c-1.5,1.4-3.4,2.7-5.3,3.1  c-7.3,1.6-14.7,2.5-22,4.2c-14.3,3.2-28.4,7.1-41.1,15.1c-8.1,5.2-15,11.9-15.4,21.5c-0.9,19.9-0.7,39.8-0.3,59.8  c0.2,7.9,6,14.6,13.8,15.7C38.9,327.7,48.2,327.5,57.8,328z M112.1,370.8c25,0,46-20.5,46-45.1c0-25.2-20.7-46-45.6-46  c-24.9,0-45.4,20.9-45.4,46.1C67,350,87.9,370.8,112.1,370.8z M379.7,370.8c24.9,0,45.5-20.7,45.5-45.5c0-24.7-20.9-45.6-45.6-45.5  c-24.9,0-45.3,20.6-45.3,45.6C334.3,350.5,354.7,370.8,379.7,370.8z"/><path d="M275.7,213.1c-51,0-101.9,0-154.6,0c5.4-5.2,9.8-9.6,14.3-13.9c13.3-12.5,27.1-24.6,39.9-37.6c8.7-8.8,19.6-12,30.9-14.4  c21.7-4.5,43.6-5.5,65.7-5.4c2.6,0,4.4,0.1,4.4,3.5c-0.1,21.9-0.1,43.8-0.1,65.7C276.2,211.7,275.9,212.3,275.7,213.1z M266.8,203.9  c0-17.7,0-35,0-52.5c-1-0.1-1.6-0.2-2.3-0.2c-19.5-0.3-38.7,1.5-57.8,5.2c-10.6,2-20,6-27.6,14.4c-6,6.6-13.3,12-19.7,18.4  c-4.9,4.9-9.1,10.4-12.8,14.8C185.5,203.9,226.1,203.9,266.8,203.9z"/><path d="M422.6,213.3c-1.9,0-3.5,0-5,0c-39.2,0-78.4-0.1-117.7,0.1c-4.5,0-5.8-1.2-5.7-5.8c0.2-20.1,0.2-40.2,0-60.3  c0-4,1-5.5,5.2-5.3c34.7,1.6,67.5,9.2,95.5,31.2c12.4,9.8,21.9,21.9,27.2,37C422.4,210.9,422.4,211.8,422.6,213.3z M303.6,203.8  c35.2,0,70.1,0,105.2,0c-16.9-33.7-67.5-52-105.2-51.8C303.6,169.2,303.6,186.4,303.6,203.8z"/><text x="0" y="515" fill="#000000" font-size="5px" font-weight="bold" font-family="'Helvetica Neue', Helvetica, Arial-Unicode, Arial, Sans-serif"></text><text x="0" y="520" fill="#000000" font-size="5px" font-weight="bold" font-family="'Helvetica Neue', Helvetica, Arial-Unicode, Arial, Sans-serif"></text></svg>
