<svg xmlns="http://www.w3.org/2000/svg" xmlns:xlink="http://www.w3.org/1999/xlink" version="1.1" x="0px" y="0px" viewBox="0 0 96 120" style="enable-background:new 0 0 96 96;" xml:space="preserve"><path d="M91.663,47.766C94.168,47.045,96,44.737,96,42c0-3.314-2.686-6-6-6h-6l-3-9c-3-9-12-9-12-9H54H42H27c0,0-9,0-12,9l-3,9H6  c-3.314,0-6,2.686-6,6c0,2.737,1.832,5.045,4.337,5.766C1.688,49.967,0,53.286,0,57v18c0,1.721,1.1,3.112,3,4.237V93  c0,1.657,1.343,3,3,3h12c1.657,0,3-1.343,3-3v-9.754C29.952,84,40.125,84,48,84s18.049,0,27-0.754V93c0,1.657,1.343,3,3,3h12  c1.657,0,3-1.343,3-3V79.237c1.9-1.125,3-2.516,3-4.237V57C96,53.286,94.312,49.967,91.663,47.766z M90,39c1.657,0,3,1.343,3,3  s-1.343,3-3,3h-3l-2-6H90z M17.846,27.949c0.936-2.809,2.711-4.894,5.44-6.068C24.287,21.451,25.888,21,27,21h15h12h15  c1.112,0,2.713,0.451,3.714,0.881c2.728,1.173,4.503,3.258,5.44,6.068L83.838,45H81h-1.606c-2.075-3.587-5.953-6-10.394-6  c-4.442,0-8.319,2.413-10.394,6H15h-2.838L17.846,27.949z M75.707,45H62.293c1.648-1.841,4.042-3,6.707-3S74.059,43.159,75.707,45z   M3,42c0-1.657,1.343-3,3-3h5l-2,6H6C4.343,45,3,43.657,3,42z M18,93h-3H6V80.592c3.16,1.112,7.343,1.861,12,2.366V93z M90,93H78  V82.958c4.656-0.505,8.84-1.254,12-2.366V93z M93,75c0,0.083-0.01,0.162-0.034,0.242c-0.574,1.879-6.551,3.318-8.156,3.653  c-6.199,1.296-13.063,1.673-19.389,1.892C59.616,80.989,53.808,81,48,81s-11.616-0.011-17.421-0.213  c-6.325-0.22-13.19-0.596-19.389-1.892c-1.604-0.335-7.582-1.774-8.156-3.653C3.01,75.162,3,75.083,3,75V57c0-4.97,4.03-9,9-9h3  h42.378h3.135h16.974h3.135H81h3c4.97,0,9,4.03,9,9V75z M54,24H42c-1.652,0-3,1.348-3,3v3c0,1.652,1.349,3,3,3h12  c1.652,0,3-1.349,3-3v-3C57,25.348,55.652,24,54,24z M54,30H42v-3h12V30z M61.5,57h-27c-0.828,0-1.5,0.672-1.5,1.5  s0.672,1.5,1.5,1.5h27c0.828,0,1.5-0.672,1.5-1.5S62.328,57,61.5,57L61.5,57z M61.5,63h-27c-0.828,0-1.5,0.672-1.5,1.5  c0,0.828,0.672,1.5,1.5,1.5h27c0.828,0,1.5-0.672,1.5-1.5C63,63.672,62.328,63,61.5,63L61.5,63z M61.5,69h-27  c-0.828,0-1.5,0.672-1.5,1.5s0.672,1.5,1.5,1.5h27c0.828,0,1.5-0.672,1.5-1.5S62.328,69,61.5,69L61.5,69z M78,54  c-4.971,0-9,4.029-9,9s4.029,9,9,9s9-4.029,9-9S82.971,54,78,54z M78,69c-3.314,0-6-2.686-6-6s2.686-6,6-6s6,2.686,6,6  S81.314,69,78,69z M18,54c-4.971,0-9,4.029-9,9s4.029,9,9,9s9-4.029,9-9S22.971,54,18,54z M18,69c-3.314,0-6-2.686-6-6s2.686-6,6-6  s6,2.686,6,6S21.314,69,18,69z"/><text x="0" y="111" fill="#000000" font-size="5px" font-weight="bold" font-family="'Helvetica Neue', Helvetica, Arial-Unicode, Arial, Sans-serif">Created by Stanislav Levin</text><text x="0" y="116" fill="#000000" font-size="5px" font-weight="bold" font-family="'Helvetica Neue', Helvetica, Arial-Unicode, Arial, Sans-serif">from the Noun Project</text></svg>