<svg xmlns="http://www.w3.org/2000/svg" data-name="Layer 1" viewBox="0 0 100 125" x="0px" y="0px"><title>collections_07</title><path d="M43,49.84a2.47,2.47,0,1,1-2.47-2.47A2.47,2.47,0,0,1,43,49.84ZM59.5,47.38A2.47,2.47,0,1,0,62,49.84,2.47,2.47,0,0,0,59.5,47.38Zm16.15,12.3-3.16,3.58a3.55,3.55,0,0,1-2.23.74,5,5,0,0,1-2.85-1l-1.34,7.29a7.56,7.56,0,0,1-7.33,6.31,7.11,7.11,0,0,1-.89-0.06A10.15,10.15,0,0,1,50,79.82a10.13,10.13,0,0,1-7.84-3.27,7.08,7.08,0,0,1-.89.06,7.56,7.56,0,0,1-7.34-6.31L32.6,63a5,5,0,0,1-2.84,1,3.56,3.56,0,0,1-2.23-.74l-0.11-.11-3.08-3.5c-0.42-.44-11-11.58-8.12-20.71C18.41,32,30.73,26.92,38,24.48a7.65,7.65,0,0,1,5-3.28L48,20.36a12,12,0,0,1,4.07,0L57,21.21a7.65,7.65,0,0,1,5,3.28C69.39,27,81.6,32,83.8,38.92,86.69,48.06,76.1,59.2,75.65,59.67Zm-43.46,1.1L30.09,49.42a14.66,14.66,0,0,1-.24-2.65v-2a14.59,14.59,0,0,1,1.4-6.22l5.44-11.45C31,29.14,19.92,33.82,18.11,39.53c-2.54,8,7.59,18.65,7.69,18.75l3,3.45C29.1,61.91,30.33,62.54,32.18,60.77ZM55.67,75.91a7.46,7.46,0,0,1-2.36-1.73l-2.57-2.82a1,1,0,0,0-1.48,0l-2.57,2.82a7.46,7.46,0,0,1-2.36,1.73A9.4,9.4,0,0,0,55.67,75.91ZM67.94,49.06a12.66,12.66,0,0,0,.21-2.28v-2a12.58,12.58,0,0,0-1.2-5.36l-6.16-13a5.73,5.73,0,0,0-4.16-3.23l-4.93-.85a10,10,0,0,0-3.39,0l-4.93.85a5.73,5.73,0,0,0-4.16,3.23l-6.16,13a12.58,12.58,0,0,0-1.2,5.36v2a12.66,12.66,0,0,0,.21,2.28l3.85,20.87a5.56,5.56,0,0,0,5.36,4.67,5.35,5.35,0,0,0,3.94-1.77L47.78,70l0.08-.07a3.8,3.8,0,0,1-1.19-1.16l-2.53-3.92A3.81,3.81,0,0,1,47.34,59h5.31a3.81,3.81,0,0,1,3.11,6L53,68.91a3.78,3.78,0,0,1-1,.92c0.07,0.06.14,0.11,0.2,0.18l2.57,2.82a5.35,5.35,0,0,0,3.94,1.77,5.57,5.57,0,0,0,5.37-4.67Zm14-9.53c-1.81-5.69-12.72-10.34-18.57-12.46l5.44,11.45a14.59,14.59,0,0,1,1.4,6.22v2a14.66,14.66,0,0,1-.24,2.65L67.82,60.77c1.86,1.78,3.1,1.13,3.35,1l3-3.42C74.31,58.18,84.43,47.53,81.89,39.53Z"/><text x="0" y="115" fill="#000000" font-size="5px" font-weight="bold" font-family="'Helvetica Neue', Helvetica, Arial-Unicode, Arial, Sans-serif"></text><text x="0" y="120" fill="#000000" font-size="5px" font-weight="bold" font-family="'Helvetica Neue', Helvetica, Arial-Unicode, Arial, Sans-serif"></text></svg>
