<svg xmlns="http://www.w3.org/2000/svg" xmlns:xlink="http://www.w3.org/1999/xlink" version="1.1" x="0px" y="0px" viewBox="0 0 100 125" enable-background="new 0 0 100 100" xml:space="preserve"><path d="M77,42.2c-6.9-11.4-21.9-28.5-24.6-31.3c-1.1-1.2-3.2-1.2-4.4,0c-2.7,2.8-17.7,19.2-24.7,30.6c-4.9,7.8-5.2,17.5-0.8,25.4  c3.6,6.6,13.2,12.6,19.3,13.6c0.6,0.1,1.1,0.1,1.7,0.1c1.9,0,3.4-0.5,4.7-1V88c0,1.1,0.9,2,2,2c1.1,0,2-0.9,2-2v-8.4  c1.3,0.5,2.9,1,4.7,1c0.6,0,1.2-0.1,1.8-0.2c6.2-1.5,15.5-7.8,19-14.4C81.7,58.5,81.4,49.4,77,42.2z M74.2,64.1  c-2.8,5.4-11.1,11.1-16.3,12.4c-1.3,0.3-3-0.3-4.5-0.8c-0.4-0.1-0.7-0.3-1.1-0.4v-7.4l10.2-6.5c0.9-0.6,1.2-1.8,0.6-2.8  c-0.6-0.9-1.8-1.2-2.8-0.6l-8,5.1V49.7l7.1-4.5c0.9-0.6,1.2-1.8,0.6-2.8c-0.6-0.9-1.8-1.2-2.8-0.6l-5,3.1v-6.5c0-1.1-0.9-2-2-2  c-1.1,0-2,0.9-2,2V45l-5-3.1c-0.9-0.6-2.2-0.3-2.8,0.6c-0.6,0.9-0.3,2.2,0.6,2.8l7.1,4.5v13.4l-8-5.1c-0.9-0.6-2.2-0.3-2.8,0.6  c-0.6,0.9-0.3,2.2,0.6,2.8l10.2,6.5v7.4c-0.3,0.1-0.6,0.2-0.9,0.3c-1.1,0.4-2.3,0.9-3.8,0.9c-0.4,0-0.7,0-1.1-0.1  c-5-0.8-13.4-6.1-16.4-11.5c-3.7-6.6-3.4-14.8,0.7-21.3c6.4-10.2,19.5-24.9,23.5-29.1c3.9,4.3,17.2,19.7,23.3,29.8  C77.2,50.3,77.4,57.9,74.2,64.1z"/><text x="0" y="115" fill="#000000" font-size="5px" font-weight="bold" font-family="'Helvetica Neue', Helvetica, Arial-Unicode, Arial, Sans-serif"></text><text x="0" y="120" fill="#000000" font-size="5px" font-weight="bold" font-family="'Helvetica Neue', Helvetica, Arial-Unicode, Arial, Sans-serif"></text></svg>
