<svg xmlns="http://www.w3.org/2000/svg" xmlns:xlink="http://www.w3.org/1999/xlink" version="1.1" x="0px" y="0px" viewBox="0 0 100 125" style="enable-background:new 0 0 100 100;" xml:space="preserve"><path d="M89.5,44.1c-3.6-3.6-8.4-5.6-13.5-5.6c0,0,0,0-0.1,0c-2.7,0-5.3,0.6-7.6,1.6c-2.1-5.5-4.4-11.3-5.4-13.9H67  c0.7,0,1.2,0.5,1.2,1.2s-0.5,1.2-1.2,1.2c-0.8,0-1.4,0.6-1.4,1.4s0.6,1.4,1.4,1.4c2.2,0,4-1.8,4-4s-1.8-4-4-4h-7.5  c-0.8,0-1.4,0.6-1.4,1.4c0,0.8,0.6,1.4,1.4,1.4H60c0.3,0.7,0.9,2.4,1.8,4.6l-21.4-0.1l-0.8-2l1.7,0c0,0,0,0,0,0  c0.8,0,1.4-0.6,1.4-1.4c0-0.8-0.6-1.4-1.4-1.4l-7.5,0c0,0,0,0,0,0c-0.8,0-1.4,0.6-1.4,1.4c0,0.8,0.6,1.4,1.4,1.4l2.8,0l1.2,3.2  l-5.3,8.6c-2.6-1.3-5.4-2-8.5-2C13.7,38.4,5,46.9,5,57.4C5,68,13.5,76.5,24,76.6c0,0,0,0,0.1,0c5.1,0,9.8-2,13.4-5.5  c3.2-3.2,5.2-7.4,5.6-11.9h6.2c0.5,0,1-0.3,1.2-0.7l13-23.3c0.8,2,1.6,4.1,2.4,6.2c-5.4,3.4-9,9.3-9,16.1c0,5.1,1.9,9.9,5.5,13.5  s8.4,5.6,13.5,5.6c0,0,0,0,0.1,0c5.1,0,9.8-2,13.4-5.5C93,67.5,95,62.7,95,57.6C95,52.5,93.1,47.7,89.5,44.1z M35.6,69.1  c-3.1,3.1-7.2,4.7-11.5,4.7c0,0,0,0-0.1,0c-9,0-16.3-7.4-16.3-16.4c0-9,7.4-16.3,16.3-16.3c0,0,0,0,0.1,0c2.5,0,4.9,0.6,7.1,1.7  l-8.7,14.2c-0.3,0.4-0.3,1,0,1.4c0.2,0.4,0.7,0.7,1.2,0.7h16.7C40,62.9,38.3,66.4,35.6,69.1z M26.1,56.4l7.5-12.2  c3.9,2.8,6.5,7.2,6.8,12.2H26.1z M43.1,56.4c-0.3-6-3.5-11.3-8.1-14.5l4.2-6.8l8.2,21.3H43.1z M49.5,54.5l-8.1-21.1l19.8,0.1  L49.5,54.5z M87.4,69.1c-3.1,3.1-7.2,4.7-11.5,4.7c0,0,0,0-0.1,0c-4.4,0-8.5-1.7-11.5-4.8c-3.1-3.1-4.8-7.2-4.7-11.6  c0-5.7,2.9-10.6,7.3-13.5c1.6,4.2,3,7.7,3.4,8.6c1.4,3.3,4.6,5.9,4.7,6c0.3,0.2,0.6,0.3,0.9,0.3c0.4,0,0.8-0.2,1.1-0.5  c0.5-0.6,0.4-1.4-0.2-1.9c0,0-2.8-2.3-3.9-5c-0.4-0.9-1.8-4.5-3.5-8.9c2-0.9,4.3-1.4,6.6-1.4c0,0,0,0,0.1,0c4.4,0,8.5,1.7,11.5,4.8  c3.1,3.1,4.8,7.2,4.7,11.6C92.3,61.9,90.5,66,87.4,69.1z"/><text x="0" y="115" fill="#000000" font-size="5px" font-weight="bold" font-family="'Helvetica Neue', Helvetica, Arial-Unicode, Arial, Sans-serif"></text><text x="0" y="120" fill="#000000" font-size="5px" font-weight="bold" font-family="'Helvetica Neue', Helvetica, Arial-Unicode, Arial, Sans-serif"></text></svg>
