<svg xmlns="http://www.w3.org/2000/svg" xmlns:xlink="http://www.w3.org/1999/xlink" version="1.1" x="0px" y="0px" viewBox="0 0 100 125" style="enable-background:new 0 0 100 100;" xml:space="preserve"><g><path d="M50.2998047,47.7998047c7.8847656,0,14.2998047-6.4150391,14.2998047-14.2998047   s-6.4150391-14.2998047-14.2998047-14.2998047S36,25.6152344,36,33.5S42.4150391,47.7998047,50.2998047,47.7998047z M50.2998047,21   c6.8925781,0,12.5,5.6074219,12.5,12.5s-5.6074219,12.5-12.5,12.5s-12.5-5.6074219-12.5-12.5S43.4072266,21,50.2998047,21z"/><path d="M58.3984375,73.0546875C65.6064453,62.2207031,77.0996094,43.3925781,77.0996094,33.5   c0-14.7773438-12.0224609-26.7998047-26.7998047-26.7998047S23.5,18.7226563,23.5,33.5   c0,9.2348633,10.059082,26.4580078,18.7084961,39.5595703C26.315918,74.1894531,16.1000977,78.0644531,16.1000977,83   c0,5.8154297,14.7026367,10.2001953,34.199707,10.2001953S84.5,88.7724609,84.5,82.9003906   C84.5,78,74.0498047,74.0761719,58.3984375,73.0546875z M50.2998047,8.5c13.7851563,0,25,11.2148438,25,25   c0,11.4130859-17.328125,37.1865234-25,48.0351563c-7.7158203-10.9277344-25-36.6772461-25-48.0351563   C25.2998047,19.7148438,36.5146484,8.5,50.2998047,8.5z M43.3427734,74.7148438   c2.2045898,3.2998047,4.0390625,5.8798828,5.1455078,7.4365234c0.5185547,0.7294922,0.8930664,1.2558594,1.0117188,1.4482422   l0.7001953,0.9345703l0.6992188-0.9345703c0.2714844-0.3603516,2.8056641-3.8642578,6.1582031-8.8847656   C72.78125,75.5957031,82.5,79.6357422,82.5,82.9208984c0.0263672,0.6269531-0.2714844,1.2675781-0.8828125,1.9042969   c-3.6015625,3.7519531-16.7724609,6.4746094-31.3173828,6.4746094c-19.09375,0-32.3999023-4.4267578-32.3999023-8.3994141   C17.8999023,79.6396484,27.6191406,75.6015625,43.3427734,74.7148438z"/></g><text x="0" y="115" fill="#000000" font-size="5px" font-weight="bold" font-family="'Helvetica Neue', Helvetica, Arial-Unicode, Arial, Sans-serif">Created by Simon Farkas</text><text x="0" y="120" fill="#000000" font-size="5px" font-weight="bold" font-family="'Helvetica Neue', Helvetica, Arial-Unicode, Arial, Sans-serif">from the Noun Project</text></svg>