<svg xmlns="http://www.w3.org/2000/svg" xmlns:xlink="http://www.w3.org/1999/xlink" version="1.1" x="0px" y="0px" viewBox="0 0 160 200" style="enable-background:new 0 0 160 160;" xml:space="preserve"><g><path d="M71.209,74.528H56.678c-0.922,0-1.771,0.505-2.212,1.315l-2.652,4.879l-7.9-37.181c0-0.002-0.001-0.004-0.001-0.006   l-0.009-0.043c-0.011-0.051-0.033-0.097-0.047-0.147c-0.029-0.104-0.057-0.208-0.098-0.307c-0.029-0.068-0.067-0.129-0.101-0.193   c-0.043-0.08-0.082-0.161-0.133-0.237c-0.04-0.059-0.087-0.11-0.131-0.165c-0.059-0.073-0.116-0.147-0.182-0.213   c-0.044-0.043-0.093-0.08-0.14-0.12c-0.077-0.066-0.153-0.132-0.238-0.189c-0.052-0.034-0.108-0.06-0.162-0.091   c-0.086-0.048-0.171-0.099-0.263-0.137c-0.08-0.034-0.165-0.054-0.248-0.079c-0.065-0.019-0.126-0.048-0.194-0.062   c-0.008-0.002-0.017-0.001-0.025-0.003c-0.093-0.019-0.188-0.023-0.283-0.031c-0.073-0.006-0.145-0.02-0.217-0.02   c-0.059,0-0.12,0.012-0.18,0.016c-0.108,0.008-0.217,0.014-0.322,0.035c-0.006,0.001-0.013,0.001-0.019,0.002   c-0.051,0.011-0.096,0.033-0.146,0.047c-0.103,0.029-0.207,0.056-0.305,0.098c-0.075,0.031-0.142,0.073-0.213,0.111   c-0.072,0.039-0.145,0.074-0.213,0.119c-0.072,0.048-0.135,0.105-0.201,0.159c-0.059,0.049-0.12,0.095-0.175,0.15   c-0.058,0.058-0.107,0.123-0.16,0.187c-0.051,0.062-0.105,0.122-0.15,0.189c-0.047,0.07-0.084,0.146-0.124,0.22   c-0.037,0.069-0.077,0.134-0.108,0.207c-0.041,0.097-0.068,0.2-0.097,0.302c-0.014,0.051-0.037,0.098-0.048,0.15l-0.009,0.043   c0,0.002-0.001,0.004-0.001,0.006l-7.901,37.18l-2.651-4.878l-5.91-10.869c-0.437-0.803-1.275-1.307-2.189-1.315   c-0.008,0-0.015,0-0.023,0c-0.906,0-1.743,0.487-2.19,1.276l-5.441,9.594H7.518C6.127,74.528,5,75.655,5,77.046   s1.127,2.518,2.518,2.518h6.612c0.907,0,1.743-0.487,2.19-1.276l3.928-6.926l3.744,6.886l5.909,10.87   c0.445,0.818,1.298,1.315,2.211,1.315c0.12,0,0.242-0.009,0.363-0.027c1.043-0.151,1.881-0.936,2.101-1.968l6.866-32.311   l6.865,32.311c0.219,1.032,1.057,1.816,2.101,1.968c0.121,0.018,0.243,0.027,0.363,0.027c0.912,0,1.766-0.497,2.211-1.315   l5.195-9.555h13.035c1.391,0,2.518-1.127,2.518-2.518S72.6,74.528,71.209,74.528z"/><path d="M113.823,131.738c0.347-0.762,0.677-1.575,0.98-2.414c3.772-10.545,9.757-19.04,17.308-24.565   c9.143-6.694,16.191-16.86,19.844-28.626c8.693-28.063-1.686-53.625-25.239-62.162c-13.479-4.881-28.857-3.001-40.138,4.91   c-10.186,7.143-15.796,18.244-15.796,31.259c0,2.119,1.724,3.843,3.843,3.843s3.843-1.724,3.843-3.843   c0-10.436,4.447-19.302,12.522-24.964c9.264-6.497,21.95-8.02,33.105-3.977c19.496,7.065,27.933,28.718,20.517,52.657   c-3.168,10.203-9.221,18.974-17.045,24.699c-8.792,6.437-15.71,16.18-20.003,28.178c-0.216,0.606-0.464,1.22-0.739,1.822   c-2.459,5.402-6.85,9.559-12.048,11.408c-4.55,1.616-9.361,1.359-13.552-0.719c-7.847-3.871-12.032-13.566-9.95-23.054   c0.22-1.002,0.036-2.031-0.518-2.895c-0.554-0.865-1.41-1.462-2.413-1.682c-0.278-0.062-0.559-0.092-0.837-0.092   c-0.721,0-1.427,0.205-2.05,0.602c-0.869,0.554-1.47,1.413-1.692,2.42c-2.875,13.101,2.904,26.093,14.054,31.593   c3.445,1.706,7.129,2.572,10.952,2.572c2.894,0,5.782-0.506,8.583-1.502C104.505,144.662,110.507,139.024,113.823,131.738z"/><path d="M113.217,32.016c-4.909,0-9.83,1.684-13.857,4.741c-10.208,7.748-11.432,21.767-2.977,34.093   c0.776,1.133,2.452,1.453,3.596,0.669c1.173-0.804,1.473-2.418,0.668-3.595c-5.76-8.395-7.426-20.016,1.839-27.05   c6.424-4.875,16.943-5.313,22.363,1.802l0.001,0.001c0.862,1.134,2.487,1.352,3.623,0.488c0.549-0.418,0.902-1.026,0.995-1.709   c0.092-0.684-0.088-1.362-0.505-1.91C125.317,34.76,119.579,32.016,113.217,32.016z"/><path d="M110.608,91.743c2.111-1.144,4.036-2.649,5.723-4.474c1.735-1.878,3.168-4.041,4.259-6.429   c2.393-5.244,3.011-10.797,1.741-15.636c-1.354-5.151-4.808-9.308-9.728-11.703c-1.279-0.624-2.832-0.089-3.456,1.193   c-0.624,1.281-0.088,2.832,1.194,3.458c3.593,1.748,6.01,4.642,6.99,8.368c0.969,3.688,0.456,8.011-1.443,12.171   c-0.865,1.893-1.994,3.598-3.357,5.069c-1.299,1.407-2.775,2.563-4.385,3.436c-2.149,1.165-4.12,2.72-5.856,4.621   c-1.594,1.749-2.99,3.784-4.147,6.049l-0.307,0.545c-1.105,1.77-2.729,2.991-4.6,3.483c-1.814,0.476-3.654,0.209-5.178-0.753   c-1.653-1.039-2.399-2.528-2.732-3.594c-0.481-1.529-0.441-3.235,0.114-4.8c0.231-0.651,0.195-1.352-0.102-1.976   c-0.297-0.622-0.819-1.093-1.47-1.324c-0.278-0.098-0.566-0.149-0.86-0.149c-1.095,0-2.075,0.691-2.44,1.721   c-0.926,2.614-0.988,5.484-0.174,8.082c0.843,2.676,2.587,4.955,4.911,6.414c2.706,1.708,6.072,2.212,9.243,1.378   c3.15-0.827,5.859-2.839,7.627-5.668c0.107-0.171,0.207-0.34,0.303-0.51c0.091-0.161,0.181-0.327,0.266-0.493   c0.951-1.861,2.083-3.515,3.364-4.92C107.457,93.828,108.971,92.63,110.608,91.743z"/></g><text x="0" y="175" fill="#000000" font-size="5px" font-weight="bold" font-family="'Helvetica Neue', Helvetica, Arial-Unicode, Arial, Sans-serif"></text><text x="0" y="180" fill="#000000" font-size="5px" font-weight="bold" font-family="'Helvetica Neue', Helvetica, Arial-Unicode, Arial, Sans-serif"></text></svg>
