<svg xmlns="http://www.w3.org/2000/svg" xmlns:xlink="http://www.w3.org/1999/xlink" version="1.1" x="0px" y="0px" viewBox="0 0 100 125" enable-background="new 0 0 100 100" xml:space="preserve"><path d="M36.001,66.806c0-4.161-3.386-7.547-7.548-7.547c-4.163,0-7.55,3.386-7.55,7.547c0,4.163,3.387,7.55,7.55,7.55  C32.615,74.355,36.001,70.969,36.001,66.806z M28.453,71.355c-2.509,0-4.55-2.041-4.55-4.55c0-2.507,2.041-4.547,4.55-4.547  c2.508,0,4.548,2.04,4.548,4.547C33.001,69.314,30.961,71.355,28.453,71.355z M71.547,59.259c-4.162,0-7.549,3.386-7.549,7.547  c0,4.163,3.387,7.55,7.549,7.55c4.163,0,7.55-3.387,7.55-7.55C79.097,62.645,75.71,59.259,71.547,59.259z M71.547,71.355  c-2.508,0-4.549-2.041-4.549-4.55c0-2.507,2.041-4.547,4.549-4.547c2.509,0,4.55,2.04,4.55,4.547  C76.097,69.314,74.056,71.355,71.547,71.355z M42.4,16.689H57.6c2.464,0,4.469-2.006,4.469-4.472S60.063,7.747,57.6,7.747H42.4  c-2.465,0-4.471,2.005-4.471,4.471S39.935,16.689,42.4,16.689z M42.4,10.747H57.6c0.81,0,1.469,0.659,1.469,1.471  s-0.659,1.472-1.469,1.472H42.4c-0.811,0-1.471-0.66-1.471-1.472S41.589,10.747,42.4,10.747z M33.343,50.017h33.341  c5.968-0.107,11.134-4.735,11.76-10.534c0.354-3.26,0.36-6.543,0.02-9.758c-0.867-8.194-7.949-10.551-11.614-10.652H33.15  c-0.014,0-0.029,0-0.043,0c-3.539,0.102-10.51,2.451-11.567,10.618c-0.383,2.959-0.377,6.162,0.016,9.792  C22.183,45.281,27.348,49.909,33.343,50.017z M24.516,30.075c0.973-7.522,8.145-7.98,8.663-8.003l33.623-0.001  c0.321,0.011,7.872,0.361,8.679,7.969c0.317,3.003,0.312,6.071-0.02,9.12c-0.467,4.324-4.347,7.775-8.805,7.856H33.37  c-4.485-0.081-8.364-3.532-8.831-7.857C24.171,35.768,24.164,32.797,24.516,30.075z M85.904,95.594l-7.038-4.53  c-0.078-0.063-0.162-0.117-0.253-0.163l-6.239-4.017c4.536-0.601,8.243-2.426,11.021-5.49c5.23-5.771,7.092-15.476,5.691-29.667  c-0.235-2.366-0.499-4.73-0.764-7.094c-0.423-3.78-0.86-7.689-1.159-11.532C85.94,17.383,73.235,3.953,57.611,1.861  c-1.342-0.179-4.247-0.217-6.448-0.217l-1.154,0.004l-1.173-0.004c-2.202,0-5.109,0.038-6.449,0.217  c-15.626,2.092-28.33,15.521-29.55,31.239c-0.298,3.832-0.734,7.729-1.156,11.499c-0.266,2.375-0.531,4.75-0.766,7.127  c-1.402,14.19,0.459,23.895,5.689,29.667c2.777,3.065,6.484,4.89,11.021,5.49l-6.374,4.104c-0.001,0.001-0.002,0.002-0.003,0.002  l-7.153,4.605c-0.697,0.448-0.897,1.376-0.449,2.072c0.287,0.446,0.77,0.688,1.263,0.688c0.278,0,0.56-0.077,0.811-0.239  l6.809-4.384h54.943l6.81,4.384c0.251,0.162,0.532,0.239,0.811,0.239c0.492,0,0.976-0.243,1.262-0.688  C86.803,96.971,86.602,96.043,85.904,95.594z M18.827,79.379c-4.564-5.038-6.222-14.242-4.927-27.357  c0.234-2.364,0.498-4.727,0.762-7.089c0.424-3.794,0.863-7.717,1.166-11.6C16.941,18.994,28.53,6.743,42.785,4.835  c0.918-0.123,3.067-0.19,6.051-0.19l1.173,0.004l1.154-0.004c2.982,0,5.132,0.067,6.051,0.19  c14.253,1.908,25.843,14.159,26.959,28.498c0.302,3.894,0.742,7.828,1.168,11.633c0.263,2.352,0.526,4.703,0.759,7.056  c1.295,13.115-0.363,22.32-4.929,27.357c-2.853,3.148-6.956,4.744-12.198,4.744H32.391c-0.004,0-0.008,0-0.012,0h-1.352  C25.784,84.123,21.679,82.527,18.827,79.379z M27.188,90.732l5.606-3.609h34.41l5.606,3.609H27.188z"/><text x="0" y="115" fill="#000000" font-size="5px" font-weight="bold" font-family="'Helvetica Neue', Helvetica, Arial-Unicode, Arial, Sans-serif"></text><text x="0" y="120" fill="#000000" font-size="5px" font-weight="bold" font-family="'Helvetica Neue', Helvetica, Arial-Unicode, Arial, Sans-serif"></text></svg>
