<svg height="469pt" viewBox="0 -90 469.40676 469" width="469pt" xmlns="http://www.w3.org/2000/svg"><path d="m418.6875 90.921875v125.28125c0 4.417969-3.582031 8-8 8h-72v-51.679687l3.917969 2.878906c3.085937 2.246094 6.9375 3.171875 10.707031 2.570312 3.765625-.601562 7.140625-2.675781 9.375-5.769531v20h32v-32h-29.761719c-.875-3.238281-2.859375-6.066406-5.597656-8l-93.839844-66.238281 73.199219-53.761719zm0 0" fill="#5aaae7"/><path d="m203.886719 85.964844-93.839844 66.238281c-2.742187 1.933594-4.722656 4.761719-5.601563 8h-21.757812v64h-24c-4.417969 0-8-3.582031-8-8v-125.28125l80-58.71875zm0 0" fill="#00ccb3"/><path d="m138.6875 38.042969-72 52.878906-16 11.761719v-11.761719l80-58.71875zm0 0" fill="#00b39d"/><path d="m154.6875 104.203125c0 13.253906-10.746094 24-24 24s-24-10.746094-24-24 10.746094-24 24-24 24 10.746094 24 24zm0 0" fill="#ffd422"/><path d="m106.367188 171.804688c2.714843 3.953124 7.203124 6.316406 12 6.320312 3.015624-.007812 5.953124-.957031 8.398437-2.722656l3.921875-2.878906v51.679687h-48v-64h21.757812c-1.007812 3.964844-.3125 8.171875 1.921876 11.601563zm0 0" fill="#8b5e3c"/><path d="m228.046875 68.921875-24.160156 17.042969-73.199219-53.761719-80 58.71875-27.921875 20.480469c-2.445313 1.765625-5.382813 2.714844-8.398437 2.722656-4.796876-.003906-9.285157-2.367188-12-6.320312-4.253907-6.460938-2.628907-15.125 3.679687-19.601563l124.640625-88zm0 0" fill="#3d9ae2"/><path d="m82.6875 160.203125h16v64h-16zm0 0" fill="#754c29"/><path d="m82.6875 160.203125h48v8h-48zm0 0" fill="#754c29"/><path d="m314.6875 154.921875 24 17.601563v51.679687h-24zm0 0" fill="#8b5e3c"/><path d="m394.6875 160.203125v32h-32v-20c.148438-.09375.257812-.234375.320312-.398437 2.273438-3.414063 2.972657-7.636719 1.917969-11.601563zm0 0" fill="#e6e7e8"/><path d="m362.6875 104.203125c0 13.253906-10.746094 24-24 24s-24-10.746094-24-24 10.746094-24 24-24 24 10.746094 24 24zm0 0" fill="#ffd422"/><path d="m469.40625 99.882812c-.007812 5.394532-3.046875 10.328126-7.863281 12.761719-4.8125 2.433594-10.589844 1.953125-14.9375-1.242187l-27.917969-20.480469-80-58.71875-73.199219 53.761719-24.160156-17.042969 97.359375-68.71875 124.640625 88c3.789063 2.683594 6.054687 7.035156 6.078125 11.679687zm0 0" fill="#009986"/><path d="m346.6875 38.042969-72 52.878906-16 11.761719v-11.761719l80-58.71875zm0 0" fill="#3d9ae2"/><path d="m362.6875 160.203125h16v32h-16zm0 0" fill="#d1d3d4"/><path d="m154.6875 154.921875v69.28125h-24v-51.679687zm0 0" fill="#00ccb3"/><path d="m314.6875 154.921875v125.28125c0 4.417969-3.582031 8-8 8h-144c-4.417969 0-8-3.582031-8-8v-125.28125l80-58.71875zm0 0" fill="#ffc477"/><path d="m242.6875 102.042969-72 52.878906-16 11.761719v-11.761719l80-58.71875zm0 0" fill="#ffb655"/><path d="m258.6875 224.203125h32v32h-32zm0 0" fill="#e6e7e8"/><path d="m258.6875 168.203125c0 13.253906-10.746094 24-24 24s-24-10.746094-24-24 10.746094-24 24-24 24 10.746094 24 24zm0 0" fill="#ffd422"/><path d="m186.6875 224.203125h48v64h-48zm0 0" fill="#8b5e3c"/><path d="m186.6875 224.203125h16v64h-16zm0 0" fill="#754c29"/><path d="m186.6875 224.203125h48v8h-48zm0 0" fill="#754c29"/><path d="m258.6875 224.203125h16v32h-16zm0 0" fill="#d1d3d4"/><path d="m290.6875 264.203125h-32c-4.417969 0-8-3.582031-8-8v-32c0-4.417969 3.582031-8 8-8h32c4.417969 0 8 3.582031 8 8v32c0 4.417969-3.582031 8-8 8zm-24-16h16v-16h-16zm0 0" fill="#754c29"/><path d="m394.6875 200.203125h-32c-4.417969 0-8-3.582031-8-8v-12c0-4.417969 3.582031-8 8-8s8 3.582031 8 8v4h16v-16h-13.761719c-4.417969 0-8-3.582031-8-8s3.582031-8 8-8h21.761719c4.417969 0 8 3.582031 8 8v32c0 4.417969-3.582031 8-8 8zm0 0" fill="#754c29"/><path d="m338.6875 172.523438-24-17.601563-80-58.71875-80 58.71875-24 17.601563-3.921875 2.878906c-2.445313 1.765625-5.382813 2.714844-8.398437 2.722656-4.457032.050781-8.675782-1.988281-11.410157-5.503906-2.734375-3.519532-3.660156-8.113282-2.511719-12.417969.878907-3.238281 2.859376-6.066406 5.601563-8l93.839844-66.238281 24.160156-17.042969 6.640625-4.71875 6.640625 4.71875 24.160156 17.042969 93.839844 66.238281c2.738281 1.933594 4.722656 4.761719 5.597656 8 1.054688 3.964844.355469 8.1875-1.917969 11.601563-.0625.164062-.171874.304687-.320312.398437-2.234375 3.09375-5.609375 5.167969-9.375 5.769531-3.769531.601563-7.621094-.324218-10.707031-2.570312zm0 0" fill="#ff6243"/></svg>